<svg width="30" height="19" viewBox="0 0 30 19" fill="none" xmlns="http://www.w3.org/2000/svg">
<g clip-path="url(#clip0_550_2971)">
<path d="M27.3134 0H2.68664C2.58407 0 2.48132 0 2.37894 0.000591703C2.29239 0.00120134 2.20604 0.00215165 2.1197 0.00448261C1.93139 0.00952106 1.74146 0.0205124 1.5555 0.0535761C1.36657 0.0872138 1.19076 0.142081 1.01925 0.22847C0.850639 0.313299 0.696268 0.424252 0.562495 0.556651C0.42866 0.689049 0.316505 0.84151 0.230776 1.0085C0.143434 1.17817 0.0879359 1.35215 0.0541698 1.5392C0.0205689 1.72322 0.00938416 1.91108 0.0043093 2.09718C0.00198935 2.1826 0.000994313 2.26802 0.00043064 2.35342C-0.000167471 2.45492 3.18993e-05 2.55636 3.18993e-05 2.65804V16.3422C3.18993e-05 16.4438 -0.000167471 16.5451 0.00043064 16.6468C0.000994313 16.7322 0.00198935 16.8176 0.0043093 16.9031C0.00938416 17.089 0.0205689 17.2768 0.0541698 17.4608C0.0879359 17.6479 0.143434 17.8218 0.230776 17.9915C0.316505 18.1585 0.42866 18.3112 0.562495 18.4434C0.696268 18.576 0.850639 18.6869 1.01925 18.7715C1.19076 18.8582 1.36657 18.913 1.5555 18.9466C1.74146 18.9795 1.93139 18.9907 2.1197 18.9957C2.20604 18.9977 2.29239 18.9988 2.37894 18.9992C2.48132 19 2.58407 19 2.68664 19H27.3134C27.4158 19 27.5185 19 27.6209 18.9992C27.7072 18.9988 27.7936 18.9977 27.8803 18.9957C28.0683 18.9907 28.2581 18.9795 28.4446 18.9466C28.6332 18.913 28.8091 18.8582 28.9806 18.7715C29.1494 18.6869 29.3033 18.576 29.4373 18.4434C29.571 18.3112 29.6831 18.1585 29.7691 17.9915C29.8566 17.8218 29.912 17.6479 29.9457 17.4608C29.9793 17.2768 29.9902 17.089 29.9953 16.9031C29.9976 16.8176 29.9988 16.7322 29.9992 16.6468C30 16.5451 30 16.4438 30 16.3422V2.65804C30 2.55636 30 2.45492 29.9992 2.35342C29.9988 2.26802 29.9976 2.1826 29.9953 2.09718C29.9902 1.91108 29.9793 1.72322 29.9457 1.5392C29.912 1.35215 29.8566 1.17817 29.7691 1.0085C29.6831 0.84151 29.571 0.689049 29.4373 0.556651C29.3033 0.424252 29.1494 0.313299 28.9806 0.22847C28.8091 0.142081 28.6332 0.0872138 28.4446 0.0535761C28.2581 0.0205124 28.0683 0.00952106 27.8803 0.00448261C27.7936 0.00215165 27.7072 0.00120134 27.6209 0.000591703C27.5185 0 27.4158 0 27.3134 0Z" fill="black"/>
<path d="M27.3129 0.632984L27.6158 0.633554C27.6979 0.63413 27.7799 0.635009 27.8625 0.637229C28.006 0.641067 28.174 0.64876 28.3305 0.676516C28.4665 0.70076 28.5807 0.737625 28.6902 0.79278C28.7983 0.847125 28.8973 0.918342 28.9838 1.00378C29.0706 1.08979 29.1427 1.18795 29.1984 1.29608C29.2538 1.40358 29.2908 1.51593 29.3152 1.65152C29.3432 1.80468 29.3509 1.97126 29.3548 2.11414C29.3571 2.1948 29.3582 2.27545 29.3585 2.35802C29.3593 2.45787 29.3593 2.55767 29.3593 2.65772V16.3418C29.3593 16.4419 29.3593 16.5415 29.3585 16.6435C29.3582 16.7241 29.3571 16.8048 29.3548 16.8856C29.3509 17.0282 29.3432 17.1947 29.3149 17.3497C29.2908 17.4834 29.2539 17.5958 29.1981 17.7038C29.1426 17.8117 29.0706 17.9097 28.9842 17.9952C28.8972 18.0813 28.7985 18.1523 28.6891 18.2072C28.5804 18.262 28.4665 18.2988 28.3317 18.3228C28.172 18.351 27.9971 18.3587 27.8653 18.3623C27.7824 18.3641 27.6999 18.3652 27.6154 18.3656C27.5147 18.3664 27.4136 18.3664 27.3129 18.3664H2.68611C2.68478 18.3664 2.68347 18.3664 2.68211 18.3664C2.58253 18.3664 2.48276 18.3664 2.38137 18.3656C2.2987 18.3652 2.21622 18.3642 2.13647 18.3624C2.0017 18.3587 1.82663 18.351 1.66824 18.323C1.53236 18.2988 1.41845 18.262 1.30832 18.2064C1.19996 18.1521 1.1013 18.0811 1.01428 17.9949C0.927938 17.9096 0.856184 17.8119 0.800706 17.7038C0.745173 17.5959 0.708016 17.4832 0.683588 17.3479C0.655345 17.1932 0.647588 17.0274 0.643714 16.8857C0.641502 16.8046 0.640575 16.7234 0.64005 16.6428L0.639648 16.4047L0.63967 16.3418V2.65772L0.639648 2.59486L0.640029 2.35726C0.640575 2.27613 0.641502 2.19501 0.643714 2.11395C0.647588 1.9721 0.655345 1.80621 0.683818 1.65024C0.708032 1.51615 0.745173 1.40343 0.800995 1.29497C0.85604 1.18777 0.927922 1.0899 1.01472 1.00405C1.10118 0.918489 1.20016 0.847358 1.30921 0.792492C1.41815 0.737604 1.53229 0.70076 1.66817 0.67657C1.82473 0.648743 1.99276 0.641067 2.13667 0.637213C2.2187 0.635009 2.30073 0.63413 2.38215 0.633576L2.68611 0.632984H27.3129Z" fill="white"/>
<path d="M8.19007 6.39035C8.44694 6.07251 8.62121 5.64571 8.57524 5.20963C8.19923 5.22812 7.74039 5.45506 7.47473 5.77312C7.23617 6.04553 7.02505 6.49018 7.08012 6.90802C7.50221 6.94423 7.92392 6.69929 8.19007 6.39035Z" fill="black"/>
<path d="M8.5703 6.98963C7.95728 6.95348 7.43609 7.3338 7.14337 7.3338C6.8505 7.3338 6.40221 7.00782 5.91734 7.01661C5.2863 7.02579 4.70076 7.37875 4.38052 7.94018C3.72186 9.06324 4.2067 10.7292 4.84722 11.6439C5.15827 12.0964 5.53312 12.5947 6.0271 12.5768C6.49376 12.5586 6.67671 12.2778 7.24398 12.2778C7.81087 12.2778 7.97566 12.5768 8.46969 12.5677C8.982 12.5586 9.3023 12.115 9.61334 11.662C9.97017 11.1461 10.1163 10.6481 10.1254 10.6207C10.1163 10.6116 9.13751 10.2402 9.12846 9.12643C9.11919 8.19385 9.89684 7.75028 9.93343 7.72276C9.4943 7.08024 8.80816 7.00782 8.5703 6.98963Z" fill="black"/>
<path d="M13.9073 5.72759C15.2397 5.72759 16.1674 6.63611 16.1674 7.95889C16.1674 9.2864 15.2206 10.1997 13.874 10.1997H12.3988V12.5205H11.333V5.72759H13.9073ZM12.3988 9.31463H13.6217C14.5497 9.31463 15.0778 8.82041 15.0778 7.96362C15.0778 7.10693 14.5497 6.61733 13.6265 6.61733H12.3988V9.31463Z" fill="black"/>
<path d="M16.4463 11.1128C16.4463 10.2466 17.1172 9.71466 18.3069 9.64876L19.6773 9.56874V9.18749C19.6773 8.63671 19.3013 8.30719 18.6734 8.30719C18.0784 8.30719 17.7072 8.58953 17.6169 9.03212H16.6462C16.7033 8.13766 17.4741 7.47863 18.7113 7.47863C19.9247 7.47863 20.7003 8.1141 20.7003 9.10742V12.5203H19.7153V11.7059H19.6916C19.4013 12.2567 18.7685 12.6051 18.1118 12.6051C17.1316 12.6051 16.4463 12.0025 16.4463 11.1128ZM19.6773 10.6656V10.2749L18.4448 10.3502C17.8309 10.3926 17.4836 10.6609 17.4836 11.0846C17.4836 11.5176 17.8453 11.8001 18.3973 11.8001C19.1158 11.8001 19.6773 11.3105 19.6773 10.6656Z" fill="black"/>
<path d="M21.6297 14.3423V13.5184C21.7057 13.5372 21.8769 13.5372 21.9627 13.5372C22.4385 13.5372 22.6955 13.3396 22.8524 12.8312C22.8524 12.8217 22.9429 12.5299 22.9429 12.5252L21.1348 7.56818H22.2481L23.514 11.5978H23.5329L24.7988 7.56818H25.8837L24.0087 12.7793C23.5806 13.9798 23.0857 14.3658 22.0484 14.3658C21.9627 14.3658 21.7057 14.3563 21.6297 14.3423Z" fill="black"/>
</g>
<defs>
<clipPath id="clip0_550_2971">
<rect width="30" height="19" fill="white"/>
</clipPath>
</defs>
</svg>
