<svg width="20" height="20" viewBox="0 0 20 20" fill="none" xmlns="http://www.w3.org/2000/svg">
<g clip-path="url(#clip0_491_1908)">
<path d="M6.58328 14.6997C5.26762 14.6997 4.20117 15.7662 4.20117 17.0818C4.20117 18.3973 5.26762 19.4637 6.58328 19.4637C7.89876 19.4637 8.96521 18.3973 8.96521 17.0818C8.96384 15.7668 7.89825 14.7011 6.58328 14.6997ZM6.58328 18.588C5.75133 18.588 5.07691 17.9136 5.07691 17.0818C5.07691 16.2499 5.75133 15.5754 6.58328 15.5754C7.41505 15.5754 8.08947 16.2499 8.08947 17.0818C8.08947 17.9136 7.41505 18.588 6.58328 18.588Z" fill="black"/>
<path d="M19.5665 4.70333H4.10531L3.79008 2.93869C3.59578 1.8524 2.74433 1.00267 1.6577 0.810587L0.514803 0.60927C0.276542 0.566852 0.0492273 0.72575 0.00680889 0.963841C-0.0354385 1.2021 0.123288 1.42942 0.36155 1.47184L1.50873 1.67315C2.23258 1.80143 2.79924 2.3681 2.92752 3.09195L4.4775 11.8361C4.66052 12.8824 5.5696 13.6456 6.63177 13.6446H15.827C16.793 13.6475 17.6462 13.0151 17.9245 12.0901L19.9824 5.26812C20.0206 5.13505 19.9965 4.99171 19.9168 4.87848C19.8335 4.76884 19.704 4.70419 19.5665 4.70333ZM17.0881 11.8317C16.9228 12.3872 16.4109 12.7673 15.8314 12.7644H6.63622C5.9984 12.7661 5.45244 12.3072 5.34451 11.6784L4.26301 5.57462H18.9796L17.0881 11.8317Z" fill="black"/>
<path d="M15.7786 14.6997C14.4629 14.6997 13.3965 15.7662 13.3965 17.0818C13.3965 18.3973 14.4629 19.4637 15.7786 19.4637C17.0941 19.4637 18.1605 18.3973 18.1605 17.0818C18.1592 15.7668 17.0936 14.7011 15.7786 14.6997ZM15.7786 18.588C14.9466 18.588 14.2722 17.9136 14.2722 17.0818C14.2722 16.2499 14.9466 15.5754 15.7786 15.5754C16.6104 15.5754 17.2848 16.2499 17.2848 17.0818C17.2848 17.9136 16.6104 18.588 15.7786 18.588Z" fill="black"/>
</g>
<defs>
<clipPath id="clip0_491_1908">
<rect width="20" height="20" fill="white"/>
</clipPath>
</defs>
</svg>
