<svg width="250" height="32" viewBox="0 0 250 32" fill="none" xmlns="http://www.w3.org/2000/svg">
<path fill-rule="evenodd" clip-rule="evenodd" d="M5.43101 3.8633L7.11071 7.16669H7.1667C6.55081 7.78258 5.99091 8.45446 5.487 9.18233C5.487 9.18233 5.487 9.18233 5.54299 9.18233L1.90365 8.2305C1.67969 8.62243 1.51173 9.01436 1.34376 9.40629C1.1198 9.79821 1.00782 10.1901 0.839847 10.6381L3.97528 12.6537C3.75132 13.3816 3.63934 14.1094 3.58335 14.8933L0 15.8451V15.9011V15.9571V16.0131V16.0691V16.1251V16.1811V16.237V16.293V16.349V16.405V16.461V16.517H0.0559898V16.573V16.629V16.685V16.741V16.7969V16.8529V16.9089V16.9649V17.0209V17.0769V17.1329V17.1889H0.11198V17.2449V17.3008V17.3568V17.4128V17.4688V17.5248V17.5808V17.6368H0.167969V17.6928V17.7488V17.8048V17.8607V17.9167V17.9727V18.0287H0.223959V18.0847V18.1407V18.1967V18.2527V18.3087V18.3647H0.279949V18.4206V18.4766L3.97528 18.7006C4.19924 19.4285 4.47919 20.1003 4.81512 20.7722L2.1836 23.4037C2.40756 23.7957 2.63152 24.1876 2.91147 24.5235C3.19142 24.8595 3.41538 25.1954 3.69533 25.5313L7.05472 23.8517C7.6706 24.4675 8.34248 25.0274 9.07035 25.4754L8.11852 29.1147C8.51045 29.2827 8.90238 29.5066 9.29431 29.6746C9.68624 29.8426 10.0782 30.0105 10.4701 30.1785L12.5417 27.0431C13.3816 27.267 14.2214 27.379 15.0613 27.435L16.0691 31.0743C16.517 31.0184 16.9089 31.0184 17.3568 30.9624C17.8048 30.9064 18.2527 30.8504 18.7006 30.7944L18.8686 27.0431C19.7084 26.8191 20.5483 26.5392 21.2761 26.1472L23.9636 28.7788C24.2996 28.5548 24.6915 28.2749 25.0274 28.0509C25.3634 27.7709 25.7553 27.491 26.0353 27.211L24.4116 23.8517C24.3556 23.9076 24.3556 23.9076 24.3556 23.9076C24.9715 23.2918 25.5314 22.6199 26.0353 21.892C25.9793 21.892 25.9793 21.892 25.9793 21.892L29.6186 22.8438C29.8426 22.4519 30.0105 22.06 30.1785 21.6681C30.3465 21.2761 30.5145 20.8282 30.6824 20.4363L27.547 18.3647C27.7709 17.6928 27.8829 16.9089 27.9389 16.1811L31.5223 15.1732V15.1172V15.0613V15.0053V14.9493V14.8933V14.8373V14.7813V14.7253V14.6693V14.6133H31.4663V14.5573V14.5014V14.4454V14.3894V14.3334V14.2774V14.2214V14.1654V14.1094V14.0534V13.9975V13.9415L31.4103 13.8855V13.8295V13.7735V13.7175V13.6615V13.6055V13.5495V13.4935V13.4376H31.3543V13.3816V13.3256V13.2696V13.2136V13.1576V13.1016V13.0456H31.2983V12.9896V12.9336V12.8777V12.8217V12.7657V12.7097H31.2423V12.6537V12.5977L27.547 12.3737C27.323 11.6459 27.0431 10.974 26.7071 10.3021L29.3387 7.61461C29.1147 7.27867 28.8907 6.88675 28.6108 6.55081C28.3308 6.15888 28.0509 5.82294 27.7709 5.487L24.4676 7.16669V7.22268C23.8517 6.6068 23.1798 6.0469 22.4519 5.54299C22.4519 5.54299 22.4519 5.54299 22.4519 5.59898L23.4037 1.95964C23.0118 1.73568 22.6199 1.56771 22.228 1.39974C21.836 1.17579 21.4441 1.00782 20.9962 0.895837L18.9805 4.03127C18.1407 3.80731 17.3009 3.63934 16.461 3.58335L15.4532 0C15.0053 0 14.5574 0.0559898 14.1654 0.11198C13.7175 0.11198 13.2696 0.223959 12.8217 0.279949L12.5977 4.03127C11.7579 4.25523 10.974 4.53517 10.2461 4.9271L7.55863 2.29558C7.22269 2.51954 6.83076 2.7435 6.49482 3.02345C6.10289 3.3034 5.76695 3.58335 5.43101 3.8633ZM6.43883 16.517C6.32685 14.8933 6.66279 13.3816 7.22269 12.0378C7.89456 10.5261 8.95837 9.23832 10.3021 8.28649C11.5899 7.33466 13.1016 6.71878 14.8373 6.55081C16.517 6.38284 18.1407 6.66279 19.5964 7.27867C21.1082 7.95055 22.3959 9.01436 23.3478 10.3581C24.2436 11.5339 24.8595 12.9896 25.0834 14.5573C25.1954 16.1251 24.8595 17.6368 24.2436 19.0365C23.6277 20.4923 22.5639 21.836 21.2201 22.7878C19.9324 23.7397 18.4207 24.3556 16.685 24.5235C15.0053 24.6915 13.3816 24.4116 11.9258 23.7397C10.4141 23.0678 9.12634 22.06 8.17451 20.7162C7.27868 19.4845 6.66279 18.0847 6.43883 16.517Z" fill="white"/>
<path fill-rule="evenodd" clip-rule="evenodd" d="M24.1892 15.5665L19.99 11.5912L15.2868 14.3347L12.2634 11.7032L7.44824 16.9102C7.6722 18.086 8.17611 19.2058 8.90398 20.1576C9.74382 21.3894 10.9196 22.3412 12.2634 22.9571C13.6631 23.573 15.1188 23.797 16.6306 23.629C18.0863 23.461 19.4861 22.9571 20.7178 22.0613C21.8936 21.1655 22.8454 19.9897 23.4613 18.6459C23.9092 17.6941 24.1332 16.6303 24.1892 15.5665ZM14.335 21.3334L12.2634 17.4701L9.40789 17.7501L12.4873 14.2227L13.6071 15.4545L14.279 17.974L15.3988 15.9024L16.7426 16.9102L19.822 12.431L19.934 15.7344L21.5577 14.8946L19.4301 20.4376L16.2386 18.31L14.335 21.3334Z" fill="white"/>
<path d="M38.5267 11.0315H49.5007C51.6283 11.0315 52.8601 11.4234 53.308 12.2073C53.532 12.5992 53.588 13.1031 53.532 13.719L52.8601 20.7177H49.3327L49.8926 14.7828C49.9486 14.1109 49.7247 13.719 49.1648 13.607H47.4291C47.3731 13.607 47.3731 13.607 47.3731 13.663L46.7012 20.7177H43.6778L44.3496 13.663C44.3496 13.607 44.3496 13.607 44.2936 13.607H41.8301C41.8301 13.607 41.7741 13.607 41.7741 13.663L41.1022 20.7177H37.6309L38.5267 11.0315ZM223.349 16.9104L223.573 14.7828H218.646L218.422 16.9104H223.349ZM73.5203 16.9104L73.7443 14.7828H68.8172L68.5932 16.9104H73.5203ZM229.732 13.4391L229.228 18.3662C229.228 18.4222 229.284 18.4222 229.284 18.4222H230.796C232.195 18.4222 232.979 18.2542 233.203 17.8623C233.427 17.6943 233.539 17.2464 233.595 16.6305L233.763 14.8388C233.819 14.2229 233.707 13.831 233.371 13.663C232.979 13.495 232.587 13.3831 232.139 13.3831H229.788C229.732 13.3831 229.732 13.4391 229.732 13.4391ZM226.429 11.0315H234.211C236.115 11.0315 237.179 11.5914 237.347 12.7672C237.403 13.1031 237.403 13.551 237.347 14.1669L237.011 17.6943C236.787 19.7099 235.723 20.7177 233.763 20.7177H225.477L226.429 11.0315ZM238.858 11.0315H250L249.776 13.495H242.218C242.162 13.495 242.162 13.495 242.162 13.551L241.994 14.7828C242.05 14.8388 242.05 14.8388 242.106 14.8388H249.608L249.44 17.0224H241.882C241.826 17.0224 241.826 17.0224 241.826 17.0784C241.77 17.6383 241.938 18.0302 242.33 18.2542C242.666 18.3662 243.281 18.4222 244.289 18.4222H249.272L249.048 20.7177H240.93C240.202 20.7177 239.418 20.4938 238.746 19.9899C238.298 19.5979 238.13 19.038 238.186 18.3662L238.858 11.0315ZM76.9357 11.0315H87.9657C90.0373 11.0315 91.3251 11.4234 91.717 12.2073C91.941 12.5992 91.997 13.1031 91.941 13.719L91.2691 20.7177H87.7417L88.3016 14.7828C88.3576 14.1109 88.1337 13.719 87.5738 13.607H85.8941C85.8381 13.607 85.7821 13.607 85.7821 13.663L85.1102 20.7177H82.0868L82.7587 13.663C82.7587 13.607 82.7587 13.607 82.7027 13.607H80.2951C80.2391 13.607 80.1831 13.607 80.1831 13.663L79.5112 20.7177H76.0399L76.9357 11.0315ZM96.7001 13.663L96.4202 16.3505C96.4202 16.4065 96.4762 16.4065 96.4762 16.4065H100.451C100.507 16.4065 100.507 16.4065 100.507 16.3505L100.675 14.7268C100.619 13.943 100.339 13.607 99.8355 13.607H96.7561C96.7001 13.607 96.7001 13.607 96.7001 13.663ZM93.4527 11.0315H100.339C102.299 11.0315 103.587 11.4234 104.091 12.2633C104.259 12.6552 104.315 13.2151 104.259 13.887L103.643 20.7177H100.115L100.283 18.6461C100.283 18.5901 100.283 18.5341 100.227 18.5341H96.3082C96.2522 18.5341 96.1962 18.5901 96.1962 18.6461L96.0282 20.7177H92.5569L93.4527 11.0315ZM105.77 11.0315H112.769C115.009 11.0315 116.241 11.7034 116.521 12.9911C116.576 13.4391 116.632 13.887 116.576 14.4469C116.409 15.9026 115.569 16.7985 114.057 17.2464C113.721 17.3024 113.497 17.3584 113.385 17.3584L116.185 20.6058V20.6618H112.209C110.362 18.5341 109.41 17.4143 109.354 17.4143H108.682C108.626 17.4143 108.57 17.4703 108.57 17.4703L108.29 20.6618H104.875L105.77 11.0315ZM108.962 13.607L108.794 15.3987C108.794 15.4547 108.794 15.5107 108.85 15.5107H111.929C112.545 15.5107 112.881 15.2867 112.937 14.8948C112.993 14.8948 113.049 14.7268 113.049 14.4469C113.105 13.943 112.937 13.663 112.545 13.495H109.018C109.018 13.495 108.962 13.551 108.962 13.607ZM117.976 11.0315H121.616L121.224 14.8388C123.967 12.5432 125.479 11.2555 125.815 11.0315H129.734V11.0875L124.079 15.9586C124.191 16.0146 125.703 17.6383 128.558 20.6618V20.7177H124.583C123.407 19.486 122.231 18.1982 121.056 16.9104L120.664 20.7177H117.08L117.976 11.0315ZM130.686 11.0315H141.772L141.548 13.495H134.045C133.989 13.495 133.933 13.495 133.933 13.551L133.821 14.7828C133.821 14.8388 133.877 14.8388 133.877 14.8388H141.436L141.212 17.0224H133.709C133.653 17.0224 133.597 17.0224 133.597 17.0784C133.541 17.6383 133.709 18.0302 134.157 18.2542C134.437 18.3662 135.109 18.4222 136.061 18.4222H141.1L140.876 20.7177H132.758C131.974 20.7177 131.246 20.4938 130.518 19.9899C130.126 19.5979 129.902 19.038 130.014 18.3662L130.686 11.0315ZM143.06 11.0315H154.538L154.314 13.3271H150.338C150.282 13.3831 150.282 13.3831 150.282 13.4391L149.555 20.7177H146.139L146.867 13.4391C146.867 13.3831 146.811 13.3271 146.755 13.3271H142.836L143.06 11.0315ZM159.017 13.551L158.849 15.3987C158.849 15.4547 158.849 15.5107 158.905 15.5107H162.208C162.768 15.5107 163.104 15.1747 163.16 14.5589V14.4469C163.216 13.831 162.992 13.495 162.432 13.495H159.073C159.017 13.495 159.017 13.551 159.017 13.551ZM155.769 11.0315H163.832C165.624 11.0315 167.023 12.0393 166.799 13.887V14.1669C166.631 15.6787 165.848 16.6865 164.392 17.2464C163.944 17.3584 163.328 17.4143 162.6 17.4143H158.737C158.681 17.4703 158.625 17.4703 158.625 17.5263L158.345 20.7177H154.818L155.769 11.0315ZM168.031 11.0315H171.559L170.831 18.3662C170.831 18.4222 170.887 18.4222 170.887 18.4222H178.501L178.277 20.7177H167.079L168.031 11.0315ZM183.652 13.663L183.428 16.3505C183.428 16.4065 183.428 16.4065 183.484 16.4065H187.404C187.46 16.4065 187.46 16.4065 187.46 16.3505L187.628 14.7268C187.628 13.943 187.348 13.607 186.844 13.607H183.764C183.708 13.607 183.652 13.607 183.652 13.663ZM180.405 11.0315H187.292C189.307 11.0315 190.539 11.4234 191.043 12.2633C191.267 12.6552 191.323 13.2151 191.267 13.887L190.595 20.7177H187.068L187.292 18.6461C187.292 18.5901 187.236 18.5341 187.236 18.5341H183.26C183.204 18.5341 183.204 18.5901 183.204 18.6461L182.98 20.7177H179.509L180.405 11.0315ZM196.642 11.0315H203.865L203.585 13.551H197.65C197.034 13.551 196.586 13.831 196.362 14.3349C196.194 14.7268 196.082 15.1747 196.026 15.7906V15.9026C195.914 17.1904 196.082 17.9183 196.642 18.0862C196.81 18.1982 196.978 18.1982 197.202 18.1982H203.193L202.913 20.7177H195.242C193.283 20.7177 192.219 19.43 191.995 16.9104C191.995 16.5745 191.995 16.2945 191.995 15.9586L192.051 15.7346C192.163 14.3909 192.723 13.1591 193.73 11.9833C194.402 11.3674 195.354 11.0315 196.642 11.0315ZM205.096 11.0315H216.182L215.958 13.495H208.456C208.4 13.495 208.344 13.495 208.344 13.551L208.232 14.7828C208.232 14.8388 208.288 14.8388 208.288 14.8388H215.846L215.622 17.0224H208.12C208.064 17.0224 208.008 17.0224 208.008 17.0784C207.952 17.6383 208.176 18.0302 208.568 18.2542C208.848 18.3662 209.52 18.4222 210.527 18.4222H215.511L215.287 20.7177H207.168C206.384 20.7177 205.656 20.4938 204.928 19.9899C204.536 19.5979 204.313 19.038 204.425 18.3662L205.096 11.0315ZM54.8197 11.0315H58.795C60.1948 12.3753 61.0346 13.2711 61.2586 13.551C61.4265 13.4391 62.4343 12.6552 64.282 11.0875C64.338 11.0315 64.338 11.0315 64.394 11.0315H68.3133V11.0875L62.6583 15.9026L67.0815 20.6618V20.7177H63.1062L60.8666 18.2542C59.075 19.8779 58.1791 20.7177 58.1231 20.7177H54.2038V20.6618L59.5229 15.9026L54.8197 11.0875V11.0315Z" fill="white"/>
</svg>
