<svg width="20" height="18" viewBox="0 0 20 18" fill="none" xmlns="http://www.w3.org/2000/svg">
<path d="M14.3291 0.721334C12.6607 0.712418 11.0747 1.44514 9.99998 2.72131C8.93203 1.43642 7.34156 0.701612 5.67085 0.721334C2.53892 0.721334 0 3.26025 0 6.39219C0 11.7593 9.36708 16.9998 9.74684 17.2023C9.90006 17.3047 10.0999 17.3047 10.2532 17.2023C10.6329 16.9998 20 11.8352 20 6.39219C20 3.26025 17.461 0.721334 14.3291 0.721334ZM9.99998 16.1897C8.53162 15.3289 1.01266 10.7467 1.01266 6.39219C1.01266 3.81955 3.09821 1.73395 5.6709 1.73395C7.24634 1.71325 8.7207 2.5079 9.56963 3.8352C9.74199 4.07288 10.0745 4.12584 10.3121 3.95343C10.3575 3.92048 10.3975 3.8806 10.4304 3.8352C11.8383 1.682 14.7252 1.07783 16.8784 2.48576C18.1965 3.34767 18.9899 4.81723 18.9873 6.39214C18.9873 10.7972 11.4683 15.3542 9.99998 16.1897Z" fill="black"/>
</svg>
