<svg width="30" height="30" viewBox="0 0 30 30" fill="none" xmlns="http://www.w3.org/2000/svg">
<path d="M7.92203 13.585C7.36519 13.585 6.93835 13.7639 6.93835 13.7639L6.82045 14.4639C6.82045 14.4639 7.17256 14.3208 7.70572 14.3208C8.00835 14.3208 8.2294 14.3545 8.2294 14.6003C8.2294 14.7497 8.20256 14.805 8.20256 14.805C8.20256 14.805 7.96414 14.7855 7.85361 14.7855C7.15098 14.7855 6.41309 15.0845 6.41309 15.9892C6.41309 16.7018 6.89677 16.8645 7.1973 16.8645C7.77045 16.8645 8.01782 16.4929 8.03045 16.4918L8.00361 16.8024H8.71888L9.03782 14.5655C9.0373 13.6155 8.2094 13.585 7.92203 13.585ZM7.52098 16.1839C7.26888 16.1839 7.20309 15.9918 7.20309 15.8771C7.20309 15.655 7.32361 15.3876 7.91888 15.3876C8.05782 15.3881 8.07256 15.4024 8.09572 15.4066C8.11151 15.5434 8.01045 16.1839 7.52098 16.1839Z" fill="white"/>
<path d="M10.5047 14.3354C10.6189 14.3354 11.0594 14.3717 11.0594 14.3717L11.1621 13.6548C11.1621 13.6548 10.8768 13.5911 10.4126 13.5911C9.81153 13.5911 9.20206 13.8311 9.20206 14.6517C9.20206 15.5822 10.2189 15.4875 10.2189 15.8801C10.2189 16.1411 9.93469 16.1627 9.71574 16.1627C9.33627 16.1627 8.99522 16.0332 8.99416 16.0385L8.88574 16.7496C8.90522 16.7548 9.11574 16.8485 9.79732 16.8485C9.97995 16.8485 11.0257 16.8959 11.0257 15.8164C11.0257 14.8069 10.0578 15.0064 10.0578 14.6006C10.0578 14.3985 10.2152 14.3354 10.5047 14.3354Z" fill="white"/>
<path d="M12.2133 14.4266H12.6433L12.747 13.6624H12.3418L12.4244 13.1887H11.6123C11.5944 13.2061 11.1328 15.8603 11.1328 16.1824C11.1328 16.6619 11.4018 16.8745 11.7802 16.8708C12.0765 16.8687 12.3075 16.7866 12.3891 16.764L12.4907 16.0735C12.4349 16.0735 12.3533 16.0977 12.2812 16.0977C11.9986 16.0977 11.9675 15.9466 11.9854 15.8356L12.2133 14.4266Z" fill="white"/>
<path d="M15.6172 9.99332H14.1677C13.973 10.2565 13.7898 10.5365 13.624 10.8102H16.2098C16.0303 10.5249 15.8319 10.2523 15.6172 9.99332Z" fill="white"/>
<path d="M26.9269 19.1817C26.9111 19.158 26.8979 19.1401 26.8874 19.129C26.8816 19.1238 26.8742 19.118 26.8647 19.1153C26.8874 19.1138 26.9063 19.1053 26.92 19.0911C26.9332 19.0769 26.9405 19.0601 26.9405 19.0406C26.9405 19.0269 26.9363 19.0138 26.9284 19.0017C26.9205 18.9895 26.909 18.9806 26.8947 18.9759C26.8816 18.9706 26.859 18.968 26.8279 18.968H26.7363V19.2338H26.7795V19.1211H26.8042C26.819 19.1211 26.8311 19.1243 26.8379 19.1306C26.849 19.1395 26.8647 19.1601 26.8832 19.1922L26.9063 19.2343H26.9595L26.9269 19.1817ZM26.8311 19.0859H26.7784V19.0059H26.8279C26.8484 19.0059 26.8621 19.0074 26.87 19.0106C26.8784 19.0138 26.8837 19.0185 26.8884 19.0243C26.8926 19.0306 26.8947 19.0374 26.8947 19.0448C26.8947 19.0569 26.8905 19.0674 26.8816 19.0748C26.8726 19.0817 26.8553 19.0859 26.8311 19.0859Z" fill="white"/>
<path d="M16.6492 11.6113H13.1718C12.9497 12.0318 12.8023 12.3497 12.7607 12.4287H16.9786C16.8834 12.1476 16.7739 11.8755 16.6492 11.6113Z" fill="white"/>
<path d="M5.41706 12.9384L4.61655 15.3121L4.57497 12.9384H3.38971L2.74023 16.8063H3.52392L4.01813 13.8905L4.09076 16.8063H4.65023L5.6939 13.8905L5.23129 16.8063H6.06285L6.70338 12.9384H5.41706Z" fill="white"/>
<path d="M21.0891 13.585C20.5312 13.585 20.1049 13.7639 20.1049 13.7639L19.9865 14.4639C19.9865 14.4639 20.3391 14.3208 20.8717 14.3208C21.1744 14.3208 21.3959 14.3545 21.3959 14.6003C21.3959 14.7497 21.3681 14.805 21.3681 14.805C21.3681 14.805 21.1302 14.7855 21.0186 14.7855C20.3165 14.7855 19.5791 15.0845 19.5791 15.9892C19.5791 16.7018 20.0633 16.8645 20.3633 16.8645C20.9359 16.8645 21.1833 16.4929 21.1965 16.4918L21.1696 16.8024H21.8844L22.2033 14.5655C22.2049 13.6155 21.3765 13.585 21.0891 13.585ZM20.6891 16.1839C20.4365 16.1839 20.3712 15.9918 20.3712 15.8771C20.3712 15.655 20.4917 15.3876 21.087 15.3876C21.2254 15.3881 21.2402 15.4024 21.2638 15.4066C21.2791 15.5434 21.1775 16.1839 20.6891 16.1839Z" fill="white"/>
<path d="M26.9522 16.4497C26.9306 16.4097 26.899 16.3792 26.8596 16.3581C26.8206 16.3366 26.7806 16.326 26.7385 16.326C26.698 16.3266 26.6575 16.3371 26.6175 16.3581C26.578 16.3792 26.5475 16.4097 26.5253 16.4497C26.5032 16.4892 26.4922 16.5302 26.4922 16.5729C26.4922 16.6155 26.5032 16.656 26.5253 16.695C26.5469 16.7339 26.5775 16.765 26.6164 16.7871C26.6559 16.8087 26.6964 16.8197 26.7385 16.8197C26.7817 16.8197 26.8227 16.8087 26.8611 16.7871C26.9001 16.765 26.9306 16.7339 26.9522 16.695C26.9748 16.656 26.9848 16.6155 26.9848 16.5729C26.9848 16.5292 26.9743 16.4881 26.9522 16.4497ZM26.918 16.6745C26.9001 16.7071 26.8748 16.7318 26.8417 16.7513C26.809 16.7692 26.7753 16.7787 26.7401 16.7787C26.7043 16.7787 26.6701 16.7692 26.638 16.7513C26.6048 16.7329 26.5801 16.7076 26.5611 16.6745C26.5422 16.6413 26.5338 16.6076 26.5338 16.5724C26.5338 16.5371 26.5427 16.5029 26.5622 16.4697C26.5806 16.4371 26.6053 16.4118 26.639 16.3934C26.6727 16.375 26.7059 16.3671 26.7401 16.3671C26.7743 16.3671 26.808 16.3755 26.8401 16.3934C26.8738 16.4118 26.8985 16.4366 26.9169 16.4697C26.9353 16.5029 26.9453 16.5371 26.9453 16.5724C26.9453 16.6076 26.9364 16.6418 26.918 16.6745Z" fill="white"/>
<path d="M26.8229 16.657C26.8076 16.6322 26.7939 16.6148 26.7839 16.6043C26.7776 16.5985 26.7708 16.5938 26.7613 16.5906C26.7839 16.5891 26.8024 16.5806 26.816 16.5664C26.8292 16.5527 26.8371 16.5348 26.8371 16.5159C26.8371 16.5027 26.8329 16.4891 26.8245 16.477C26.816 16.4654 26.805 16.4564 26.7918 16.4512C26.7787 16.4459 26.7555 16.4433 26.7245 16.4433H26.6318V16.7085H26.675V16.5959H26.6997C26.715 16.5959 26.7271 16.5991 26.7345 16.6048C26.7455 16.6143 26.7603 16.6343 26.7797 16.6675L26.8024 16.7091H26.8555L26.8229 16.657ZM26.7282 16.5596H26.676V16.4791H26.7245C26.7455 16.4791 26.7592 16.4806 26.7676 16.4833C26.7745 16.487 26.7808 16.4906 26.785 16.4975C26.7897 16.5043 26.7918 16.5101 26.7918 16.5191C26.7918 16.5306 26.7871 16.5406 26.7792 16.548C26.7692 16.557 26.7529 16.5596 26.7282 16.5596Z" fill="white"/>
<path d="M23.8492 13.6236C23.4855 13.6236 23.2155 14.1199 23.2155 14.1199L23.2881 13.6636H22.5313L22.0244 16.812H22.8581C23.0955 15.4668 23.1386 14.3757 23.7023 14.5752C23.8018 14.0552 23.8976 13.8536 24.0055 13.6341C24.0055 13.6346 23.9549 13.6236 23.8492 13.6236Z" fill="white"/>
<path d="M25.9434 12.9426L25.7681 14.0294C25.7681 14.0294 25.4628 13.6068 24.9839 13.6068C24.2391 13.6073 23.6191 14.5047 23.6191 15.5352C23.6191 16.201 23.9502 16.8531 24.626 16.8531C25.1128 16.8531 25.3823 16.5136 25.3823 16.5136L25.347 16.8036H26.137L26.7581 12.941L25.9434 12.9426ZM24.9134 16.0636C24.6207 16.0636 24.4839 15.8184 24.4839 15.4331C24.4839 14.8031 24.7665 14.3878 25.1239 14.3878C25.4155 14.3884 25.5655 14.5889 25.5655 15.0615C25.5655 15.4905 25.3534 16.0636 24.9134 16.0636Z" fill="white"/>
<path d="M28.9611 5.23129H0.765263C0.342105 5.23129 0 5.57395 0 5.99658V23.7308C0 24.1534 0.342105 24.4961 0.765263 24.4961H28.9611C29.3842 24.4961 29.7263 24.1534 29.7263 23.7308V5.99658C29.7263 5.57395 29.3842 5.23129 28.9611 5.23129ZM27.0574 19.2203C27.0353 19.2603 27.0053 19.2908 26.9663 19.3124C26.9274 19.3339 26.8863 19.345 26.8442 19.345C26.8011 19.345 26.76 19.3339 26.7211 19.3124C26.6826 19.2908 26.6521 19.2603 26.6295 19.2203C26.6079 19.1818 26.5968 19.1408 26.5968 19.0982C26.5968 19.0555 26.6079 19.015 26.63 18.975C26.6516 18.935 26.6832 18.905 26.7221 18.8834C26.7616 18.8629 26.8016 18.8518 26.8437 18.8518C26.8853 18.8518 26.9253 18.8629 26.9642 18.8834C27.0037 18.905 27.0347 18.935 27.0563 18.975C27.0784 19.015 27.0889 19.0561 27.0889 19.0982C27.0889 19.1403 27.0795 19.1829 27.0574 19.2203ZM27.6089 14.8639C27.61 19.0771 24.1963 22.4939 19.9826 22.495C18.0121 22.4955 16.2153 21.7487 14.8616 20.5218C13.5079 21.7466 11.7147 22.4929 9.74737 22.4929C5.53632 22.4929 2.11842 19.0755 2.11842 14.8639C2.11842 10.6692 5.50947 7.26184 9.69842 7.23447C9.71474 7.23447 9.73105 7.23447 9.74737 7.23447C11.7147 7.23447 13.5084 7.98079 14.8621 9.20553C16.2153 7.98026 18.01 7.23342 19.9789 7.23289C24.1926 7.23132 27.6089 10.6466 27.61 14.8603C27.6089 14.8613 27.6089 14.8618 27.6089 14.8639Z" fill="white"/>
<path d="M14.0801 19.6875C14.3217 19.9832 14.5774 20.2654 14.8601 20.5212C14.8664 20.5154 14.8732 20.5101 14.8796 20.5049C14.8796 20.5049 14.879 20.5049 14.879 20.5043H14.8806C15.1585 20.2512 15.418 19.9785 15.6553 19.6875H14.0801Z" fill="white"/>
<path d="M15.1191 15.5C15.1191 15.5 15.226 14.9737 15.226 14.7595C15.226 14.2242 14.9596 13.5716 14.0681 13.5716C13.2512 13.5721 12.6465 14.4521 12.6465 15.4469C12.6465 16.5948 13.4039 16.8674 14.0496 16.8674C14.6454 16.8674 14.9075 16.7337 14.9075 16.7337L15.0507 15.9506C15.0507 15.9506 14.5975 16.1506 14.1881 16.1506C13.316 16.1506 13.4686 15.5 13.4686 15.5H15.1191ZM14.0707 14.3006C14.5291 14.3006 14.4444 14.8158 14.4444 14.8569H13.5428C13.5428 14.8037 13.6281 14.3006 14.0707 14.3006Z" fill="white"/>
<path d="M18.9293 13.6794C19.3424 13.6794 19.6745 13.9115 19.6745 13.9115L19.8072 13.051C19.8072 13.051 19.3156 12.852 18.8924 12.852C17.9551 12.852 17.043 13.6657 17.043 15.1936C17.043 16.2068 17.5351 16.8757 18.5045 16.8757C18.7782 16.8757 19.2151 16.7647 19.2151 16.7647L19.3603 15.8783C19.3603 15.8783 18.9624 16.0778 18.6888 16.0778C18.1119 16.0773 17.8809 15.6373 17.8809 15.1657C17.8809 14.2062 18.3767 13.6794 18.9293 13.6794Z" fill="white"/>
<path d="M13.0625 18.0849C13.1946 18.3686 13.3483 18.6386 13.513 18.9017H16.2199C16.3841 18.6396 16.532 18.367 16.6641 18.0849H13.0625Z" fill="white"/>
<path d="M17.0282 13.6247C16.6646 13.6247 16.3951 14.121 16.3951 14.121L16.4682 13.6647H15.7119L15.2051 16.8131H16.0388C16.2751 15.4684 16.3193 14.3768 16.883 14.5763C16.9819 14.0558 17.0772 13.8542 17.1851 13.6342C17.1851 13.6342 17.1346 13.6237 17.0282 13.6247Z" fill="white"/>
</svg>
