<svg width="15" height="15" viewBox="0 0 15 15" fill="none" xmlns="http://www.w3.org/2000/svg">
<path d="M14.858 14.1842L10.9851 10.3733C11.9993 9.27142 12.6225 7.81418 12.6225 6.21065C12.622 2.78038 9.79656 0 6.31098 0C2.8254 0 0 2.78038 0 6.21065C0 9.64091 2.8254 12.4213 6.31098 12.4213C7.81699 12.4213 9.19827 11.9004 10.2833 11.0344L14.1711 14.8603C14.3605 15.047 14.6681 15.047 14.8575 14.8603C15.0474 14.6738 15.0474 14.3709 14.858 14.1842ZM6.31098 11.4657C3.3618 11.4657 0.971033 9.11296 0.971033 6.21065C0.971033 3.30833 3.3618 0.955544 6.31098 0.955544C9.26019 0.955544 11.6509 3.30833 11.6509 6.21065C11.6509 9.11296 9.26019 11.4657 6.31098 11.4657Z" fill="#666666"/>
</svg>
