<svg width="90" height="20" viewBox="0 0 90 20" fill="none" xmlns="http://www.w3.org/2000/svg">
<g clip-path="url(#clip0_550_2952)">
<path d="M87.6003 0H2.238C1.64445 0 1.0752 0.231165 0.655495 0.642642C0.235789 1.05412 0 1.6122 0 2.19412V17.8059C0 18.3878 0.235789 18.9459 0.655495 19.3573C1.0752 19.7688 1.64445 20 2.238 20H87.6003C88.2369 20 88.847 19.7521 89.297 19.3108C89.747 18.8696 90 18.2711 90 17.647V2.35294C90 1.7289 89.747 1.13042 89.297 0.689161C88.847 0.247898 88.2369 0 87.6003 0ZM89.4002 17.647C89.4002 18.1151 89.2107 18.5639 88.8728 18.8949C88.5349 19.2259 88.0775 19.4118 87.6003 19.4118H2.238C1.80406 19.4102 1.38835 19.2405 1.0815 18.9397C0.774664 18.6389 0.601581 18.2313 0.6 17.8059V2.19412C0.601581 1.76869 0.774664 1.36113 1.0815 1.0603C1.38835 0.759474 1.80406 0.589785 2.238 0.588235H87.6003C88.0775 0.588235 88.5349 0.774155 88.8728 1.1051C89.2107 1.43605 89.4002 1.88491 89.4002 2.35294V17.647Z" fill="white"/>
<path d="M10.2422 6.61169H7.66211V12.9411H8.81411V10.4941H10.2422C11.6822 10.4941 12.5822 9.8117 12.5822 8.55289C12.5822 7.29404 11.6822 6.61169 10.2422 6.61169ZM10.1821 9.55289H8.81411V7.6117H10.2001C11.0281 7.6117 11.4662 7.95874 11.4662 8.58229C11.4662 9.20578 11.0101 9.52348 10.2001 9.52348L10.1821 9.55289Z" fill="white"/>
<path d="M15.0605 8.2351C14.7451 8.23154 14.4323 8.29266 14.1424 8.41458C13.8526 8.53651 13.5919 8.71658 13.3771 8.94317C13.1625 9.16969 12.9985 9.43777 12.8957 9.73021C12.7929 10.0226 12.7537 10.3328 12.7805 10.641C12.7524 10.9508 12.7904 11.263 12.8919 11.5577C12.9936 11.8524 13.1567 12.123 13.3709 12.3525C13.5851 12.5821 13.8456 12.7653 14.136 12.8907C14.4264 13.0161 14.7402 13.0808 15.0575 13.0808C15.3748 13.0808 15.6886 13.0161 15.9789 12.8907C16.2693 12.7653 16.5299 12.5821 16.7441 12.3525C16.9582 12.123 17.1214 11.8524 17.223 11.5577C17.3247 11.263 17.3626 10.9508 17.3345 10.641C17.3621 10.3332 17.3238 10.023 17.2217 9.73066C17.1197 9.43821 16.9563 9.17006 16.7419 8.9434C16.5277 8.71673 16.2674 8.53658 15.9778 8.41458C15.6881 8.29258 15.3756 8.23147 15.0605 8.2351ZM15.0605 12.1587C14.3285 12.1587 13.8605 11.5704 13.8605 10.641C13.8605 9.71154 14.3164 9.12332 15.0605 9.12332C15.8045 9.12332 16.2604 9.71154 16.2604 10.641C16.2604 11.5704 15.7865 12.1527 15.0605 12.1527V12.1587Z" fill="white"/>
<path d="M22.0682 11.3822L21.2222 8.31159H20.3343L19.4942 11.3822L18.6423 8.31159H17.5322L18.9542 12.9469H19.8902L20.7542 9.91159L21.6182 12.9469H22.5542L23.9762 8.31159H22.9083L22.0682 11.3822Z" fill="white"/>
<path d="M26.3997 8.23495C26.0885 8.24058 25.7816 8.30821 25.4977 8.43377C25.2139 8.55925 24.959 8.73991 24.7486 8.96495C24.5382 9.18991 24.3766 9.45451 24.2736 9.74258C24.1707 10.0307 24.1285 10.3363 24.1497 10.6408C24.1247 10.9501 24.1657 11.2611 24.2702 11.5539C24.3747 11.8467 24.5405 12.115 24.7568 12.3414C24.9731 12.5678 25.2352 12.7475 25.5263 12.869C25.8175 12.9904 26.1313 13.051 26.4477 13.0467C26.8827 13.0697 27.3142 12.9583 27.6812 12.7283C28.0482 12.4982 28.3324 12.1611 28.4937 11.7644L27.5997 11.3996C27.5296 11.627 27.3827 11.8241 27.1831 11.9588C26.9837 12.0935 26.7433 12.1577 26.5017 12.1408C26.3296 12.1449 26.1585 12.1146 25.9987 12.0518C25.8388 11.9892 25.6936 11.8952 25.5719 11.7759C25.4502 11.6566 25.3544 11.5143 25.2905 11.3575C25.2265 11.2009 25.1956 11.0331 25.1997 10.8644H28.5117V10.5114C28.5237 9.2408 27.7917 8.23495 26.3997 8.23495ZM25.2417 10.0761C25.2838 9.80599 25.4243 9.55999 25.6372 9.38369C25.8502 9.2074 26.1211 9.11273 26.3997 9.11732C26.5321 9.10636 26.6654 9.1231 26.7907 9.16658C26.9159 9.20999 27.0304 9.2791 27.1263 9.36925C27.2222 9.4594 27.2974 9.56851 27.347 9.6894C27.3966 9.81028 27.4193 9.94006 27.4137 10.0702L25.2417 10.0761Z" fill="white"/>
<path d="M30.414 9.00004V8.31181H29.334V12.9412H30.414V10.5118C30.4043 10.3549 30.4288 10.1977 30.4857 10.0506C30.5426 9.90367 30.6306 9.77011 30.744 9.65893C30.8575 9.54774 30.9937 9.46144 31.1436 9.40567C31.2935 9.34989 31.4539 9.32589 31.6139 9.3353C31.7458 9.32619 31.8781 9.32619 32.0099 9.3353V8.27648C31.926 8.27648 31.8299 8.27648 31.7039 8.27648C31.4408 8.26315 31.1793 8.32426 30.9506 8.45256C30.7218 8.58078 30.5356 8.77085 30.414 9.00004Z" fill="white"/>
<path d="M34.4876 8.23495C34.1763 8.24058 33.8694 8.30821 33.5856 8.43377C33.3018 8.55925 33.047 8.73991 32.8365 8.96495C32.6261 9.18991 32.4645 9.45451 32.3616 9.74258C32.2586 10.0307 32.2164 10.3363 32.2376 10.6408C32.2125 10.9501 32.2536 11.2611 32.3581 11.5539C32.4626 11.8467 32.6283 12.1149 32.8446 12.3414C33.0609 12.5678 33.3231 12.7475 33.6143 12.8689C33.9054 12.9904 34.2192 13.0509 34.5356 13.0467C34.9667 13.0647 35.3927 12.9509 35.7549 12.7212C36.1171 12.4915 36.3977 12.1572 36.5576 11.7644L35.6336 11.4173C35.5635 11.6446 35.4166 11.8418 35.2171 11.9764C35.0176 12.1112 34.7772 12.1753 34.5356 12.1585C34.3671 12.1569 34.2004 12.1226 34.0455 12.0574C33.8906 11.9922 33.7504 11.8975 33.6332 11.7787C33.516 11.6599 33.424 11.5195 33.3626 11.3655C33.3012 11.2116 33.2717 11.0472 33.2756 10.882H36.5997V10.529C36.5997 9.2408 35.8556 8.23495 34.4876 8.23495ZM33.3296 10.0761C33.3729 9.80806 33.513 9.56428 33.7246 9.38932C33.9362 9.21428 34.2049 9.11984 34.4816 9.12317C34.6141 9.11221 34.7473 9.12902 34.8726 9.17243C34.9978 9.21591 35.1122 9.28495 35.2082 9.3751C35.3041 9.46525 35.3794 9.57443 35.4289 9.69525C35.4785 9.81614 35.5012 9.94599 35.4956 10.0761H33.3296Z" fill="white"/>
<path d="M40.5366 8.82348C40.3701 8.63192 40.1618 8.47955 39.9271 8.37778C39.6923 8.27592 39.4372 8.22718 39.1806 8.23518C37.8546 8.23518 37.0986 9.32348 37.0986 10.6411C37.0986 11.9587 37.8546 13.047 39.1806 13.047C39.4374 13.0563 39.6929 13.0081 39.9278 12.9062C40.1628 12.8044 40.3709 12.6513 40.5366 12.4587V12.9411H41.6166V6.61169H40.5366V8.82348ZM40.5366 10.7941C40.5608 10.9618 40.5478 11.1327 40.4984 11.295C40.4491 11.4573 40.3645 11.6073 40.2506 11.7346C40.1366 11.8619 39.996 11.9637 39.8382 12.0328C39.6805 12.1019 39.5094 12.1369 39.3366 12.1352C38.5506 12.1352 38.1366 11.547 38.1366 10.6529C38.1366 9.75874 38.5566 9.17052 39.3366 9.17052C40.0026 9.17052 40.5366 9.64696 40.5366 10.5176V10.7941Z" fill="white"/>
<path d="M47.5861 8.23518C47.3248 8.224 47.0642 8.27111 46.8241 8.37304C46.584 8.47489 46.3707 8.62896 46.2001 8.82348V6.61169H45.1201V12.9411H46.2001V12.4529C46.3675 12.6449 46.5769 12.7975 46.8127 12.8993C47.0485 13.0011 47.3046 13.0496 47.5621 13.0411C48.8821 13.0411 49.6381 11.947 49.6381 10.6352C49.6381 9.32348 48.9061 8.23518 47.5861 8.23518ZM47.4001 12.1176C47.2274 12.1193 47.0562 12.0843 46.8985 12.0152C46.7408 11.946 46.6001 11.8443 46.4862 11.717C46.3722 11.5896 46.2877 11.4396 46.2383 11.2773C46.189 11.115 46.1759 10.9441 46.2001 10.7764V10.4999C46.2001 9.62933 46.7041 9.15289 47.4001 9.15289C48.1801 9.15289 48.6001 9.74111 48.6001 10.6352C48.6001 11.5293 48.1501 12.1176 47.4001 12.1176Z" fill="white"/>
<path d="M52.1584 11.5646L51.0003 8.31159H49.8604L51.6004 12.7763L51.4204 13.2116C51.3898 13.3607 51.3014 13.4925 51.1739 13.5791C51.0464 13.6657 50.8895 13.7006 50.7364 13.6763C50.6165 13.6849 50.4962 13.6849 50.3764 13.6763V14.5646C50.5213 14.5857 50.6678 14.5955 50.8144 14.594C51.189 14.6206 51.5612 14.5174 51.8661 14.3024C52.171 14.0874 52.3891 13.7742 52.4824 13.4174L54.4264 8.34685H53.2924L52.1584 11.5646Z" fill="white"/>
<path d="M75.0004 7.31197C74.7628 7.31063 74.5282 7.35515 74.3091 7.44298C74.09 7.53076 73.8901 7.66017 73.7221 7.82372L73.638 7.41787H72.2041V15.0179L73.8363 14.6708V12.8296C74.1609 13.0961 74.571 13.2419 74.9937 13.2414C76.1578 13.2414 77.226 12.3061 77.226 10.2355C77.226 8.34135 76.146 7.31197 75.0004 7.31197ZM74.6101 11.8002C74.467 11.8083 74.3239 11.7851 74.1911 11.7322C74.0583 11.6792 73.9388 11.598 73.8422 11.4943V9.07669C73.9395 8.96921 74.0598 8.88439 74.1948 8.82846C74.3298 8.77246 74.4759 8.74676 74.6219 8.75313C75.2224 8.75313 75.6304 9.41787 75.6304 10.2708C75.6304 11.1237 75.2158 11.8002 74.6101 11.8002Z" fill="white"/>
<path d="M80.2378 7.31194C78.6658 7.31194 77.7119 8.64135 77.7119 10.3178C77.7119 12.3002 78.8399 13.3061 80.4481 13.3061C81.0751 13.3161 81.6948 13.1682 82.2481 12.8766V11.5531C81.7457 11.8014 81.1902 11.9265 80.6281 11.9178C79.9796 11.9178 79.4278 11.6884 79.3437 10.9178H82.5719C82.5719 10.8296 82.5719 10.4825 82.5719 10.3296C82.6258 8.64135 81.8099 7.31194 80.2378 7.31194ZM79.3555 9.70609C79.3555 8.96491 79.8181 8.65313 80.226 8.65313C80.634 8.65313 81.0655 8.96491 81.0655 9.70609H79.3555Z" fill="white"/>
<path d="M67.7997 7.85851L67.6977 7.37618H66.3057V13.0879H67.9137V9.21732C68.0589 9.04451 68.2545 8.91925 68.4743 8.85821C68.6941 8.79725 68.9276 8.80355 69.1437 8.87621V7.37618C68.8983 7.2819 68.626 7.27891 68.3785 7.36776C68.131 7.45658 67.9251 7.63118 67.7997 7.85851Z" fill="white"/>
<path d="M59.6754 9.09375C59.6754 8.83494 59.8914 8.73494 60.2334 8.73494C60.8002 8.74694 61.3558 8.89212 61.8534 9.15849V7.61138C61.3389 7.40746 60.7883 7.30551 60.2334 7.31142C58.9074 7.31142 58.0254 8.00553 58.0254 9.17027C58.0254 10.9938 60.5094 10.6997 60.5094 11.482C60.5094 11.7879 60.2454 11.8879 59.9094 11.8879C59.2755 11.8515 58.659 11.6703 58.1094 11.3585V12.9409C58.6759 13.1886 59.2891 13.3168 59.9094 13.3173C61.2654 13.3173 62.2014 12.6409 62.2014 11.4585C62.1714 9.48197 59.6754 9.83494 59.6754 9.09375Z" fill="white"/>
<path d="M64.3685 6.02357L62.7784 6.36475V11.6177C62.7702 11.839 62.8082 12.0598 62.89 12.2663C62.9717 12.4728 63.0955 12.6608 63.2539 12.8188C63.4123 12.9768 63.6018 13.1015 63.811 13.1852C64.0201 13.269 64.2446 13.3101 64.4704 13.3059C64.8647 13.3232 65.2574 13.2486 65.6165 13.0883V11.7647C65.4064 11.853 64.3804 12.153 64.3804 11.1765V8.82355H65.6165V7.4471H64.3804L64.3685 6.02357Z" fill="white"/>
<path d="M69.75 6.88219L71.388 6.5469V5.27631L69.75 5.6116V6.88219Z" fill="white"/>
<path d="M71.388 7.41758H69.75V13.0882H71.388V7.41758Z" fill="white"/>
</g>
<defs>
<clipPath id="clip0_550_2952">
<rect width="90" height="20" fill="white"/>
</clipPath>
</defs>
</svg>
