<svg width="30" height="30" viewBox="0 0 30 30" fill="none" xmlns="http://www.w3.org/2000/svg">
<path d="M28.2822 4.49983H1.71778C0.770038 4.49983 0 5.26987 0 6.2176V23.7822C0 24.73 0.770038 25.5 1.71778 25.5H28.2822C29.23 25.5 30 24.73 30 23.7822V6.21575C30 5.26987 29.23 4.49983 28.2822 4.49983ZM28.2378 23.736L1.7622 23.7804L1.71778 6.26018L28.2378 6.21575V23.736Z" fill="white"/>
<path d="M4.26337 12.5723L5.15373 18.951H7.33982L11.4158 11.0526H9.11868L7.38795 14.7158C7.14361 15.236 6.93074 15.7061 6.74749 16.1374C6.71417 15.6876 6.67715 15.2508 6.63272 14.8047L6.28287 11.0544H2.78809L6.4217 13.9291L4.26337 12.5723Z" fill="white"/>
<path d="M12.9851 18.9529L14.4826 11.0544H12.4261L10.9268 18.9529H12.9851Z" fill="white"/>
<path d="M14.1904 18.4864C14.6717 18.8474 15.5194 19.0621 16.4579 19.0621C18.4034 19.0621 19.7102 17.9626 19.7102 16.3281C19.7102 15.434 19.1882 14.7251 18.1165 14.1642C17.5167 13.8273 17.1521 13.6015 17.1521 13.3164C17.1521 13.0499 17.4316 12.763 18.0942 12.763C18.7403 12.763 19.2326 13.0166 19.3271 13.0665L19.5603 13.1943L20.2174 11.4358L20.0453 11.3395C19.5529 11.0674 18.942 10.936 18.1775 10.936C16.3154 10.936 15.0141 12.0244 15.0141 13.583C15.0141 14.7121 15.9026 15.3396 16.6837 15.7617C17.4168 16.143 17.5611 16.3596 17.5611 16.6058C17.5611 17.0796 17.0503 17.2481 16.6116 17.2481C16.0396 17.2481 15.4435 17.087 14.9752 16.8057L14.7438 16.6687L14.0479 18.3828L14.1904 18.4864Z" fill="white"/>
<path d="M21.694 18.9529L22.5769 17.0222H24.3576L24.5131 18.9529H26.6492L25.7237 11.0544H23.334L19.4912 18.9529H21.694ZM23.8412 14.0735C23.9226 13.8958 24.0059 13.6922 24.0911 13.483C24.1059 13.67 24.1188 13.8458 24.1299 13.9976L24.2503 15.347H23.2507L23.8412 14.0735Z" fill="white"/>
</svg>
